PathFileType	4	(X/Y/Z)	C:/Users/beibeiliu/ov580/test_trc/User2\sequence.7_training_dense_left.trc
DataRate	CameraRate	NumFrames	NumMarkers	Units	OrigDataRate	OrigDataStartFrame	OrigNumFrames
120	120	22	19	mm	120	1	338
Frame#	Time	ThumbCMC			ThumbMCP			ThumbIP			ThumbTip			IndexMCP			IndexPIP			IndexTip			MiddleMCP			MiddlePIP			MiddleTip			RingMCP			RingPIP			RingTip			PinkyMCP			PinkyPIP			PinkyTip			BackHand1			BackHand2			BackHand3	
		X0	Y0	Z0	X1	Y1	Z1	X2	Y2	Z2	X3	Y3	Z3	X4	Y4	Z4	X5	Y5	Z5	X6	Y6	Z6	X7	Y7	Z7	X8	Y8	Z8	X9	Y9	Z9	X10	Y10	Z10	X11	Y11	Z11	X12	Y12	Z12	X13	Y13	Z13	X14	Y14	Z14	X15	Y15	Z15	X16	Y16	Z16	X17	Y17	Z17	X18	Y18	Z18	
0	0	-103.756	-7.73084	110.625	-88.6294	-23.1031	90.4403	-69.2109	-36.9221	64.3809	-57.8781	-50.823	44.0865	-130.684	-6.26044	30.6142	-127.2	-11.6512	3.28067	-127.734	-18.6306	-29.4864	-155.724	0.392787	24.7449	-161.628	-4.11457	-7.39195	-169.657	-13.7658	-37.8522	-179.252	-0.300189	32.9182	-186.955	-3.34115	9.92376	-194.81	-12.4084	-17.9096	-202.423	-2.89503	57.4048	-212.136	-4.27184	36.4734	-218.869	-2.64319	10.4387	-170.652	14.4139	84.1777	-164.488	27.5253	119.102	-133.804	17.4595	94.4227	
1	0.00833333	-106.913	-8.46338	108.611	-89.1364	-22.0955	88.7062	-75.7888	-36.4657	63.3387	-60.088	-50.4087	43.8341	-132.595	-5.35322	28.8959	-130.472	-10.3336	-1.07279	-131.503	-18.1323	-30.3898	-156.679	0.79486	22.026	-161.752	-3.29016	-5.011	-171.168	-12.7212	-37.8812	-184.47	1.78968	35.5308	-187.415	-3.27047	9.47826	-196.372	-11.8713	-22.9623	-200.571	-3.58639	60.5719	-215.451	-2.44048	31.9159	-222.403	0.171281	12.7868	-173.684	14.8841	88.6499	-164.969	27.8767	116.486	-134.602	16.37	93.0911	
2	0.0166667	-106.992	-8.1534	110.16	-91.0868	-21.6115	90.9951	-72.2234	-36.7937	60.1558	-62.7546	-49.2288	46.9533	-127.96	-5.96951	24.9031	-130.913	-9.87064	0.772042	-127.766	-17.0744	-26.8895	-158.86	2.60412	25.0751	-162.63	-3.11821	-6.42032	-168.295	-11.7297	-36.7942	-179.427	1.76775	36.291	-189.169	-3.52867	5.04557	-197.697	-11.0963	-21.8501	-202.253	-0.984567	59.2556	-215.445	-2.2248	33.8827	-222.128	-1.63098	11.7084	-174.259	16.6318	87.756	-164.474	27.0048	116.313	-135.67	17.7512	95.7816	
3	0.025	-104.402	-7.765	104.913	-91.8791	-21.3754	87.6539	-74.0959	-35.8631	61.7796	-61.8569	-48.6584	48.2222	-130.92	-4.8249	25.2862	-127.111	-9.45549	-2.97819	-133.487	-15.4189	-25.9232	-156.531	2.97151	25.9568	-163.293	-2.32765	-8.74468	-171.254	-10.6177	-37.5225	-179.908	2.48018	33.2438	-190.275	-2.33846	6.28313	-195.101	-9.4038	-17.7804	-197.984	-2.03096	59.0726	-210.927	-1.01157	32.6448	-221.829	1.44628	11.6029	-173.164	15.653	84.6277	-168.323	28.6266	115.401	-134.652	18.1325	92.299	
4	0.0333333	-109.178	-8.05324	109.639	-91.4157	-21.983	86.4083	-71.998	-35.9578	63.7995	-59.8401	-49.0188	46.8715	-128.644	-4.95079	29.0956	-128.984	-8.84544	2.67823	-129.073	-15.1436	-25.2085	-155.366	3.11033	20.7055	-161.533	-3.79801	-10.4467	-168.917	-9.70539	-35.8501	-185.293	2.10335	35.6093	-190.12	-2.50414	5.23579	-199.089	-10.8927	-20.9694	-204.402	-0.966272	58.4994	-210.165	-2.51265	33.9598	-222.361	0.806024	11.5123	-174.274	17.0785	85.6022	-163.564	27.6128	113.666	-136.242	16.7657	93.1691	
5	0.0416667	-109.432	-8.63306	105.97	-92.868	-21.5428	87.66	-74.8738	-35.6797	60.4405	-59.8136	-48.9269	46.0649	-128.346	-5.59872	30.7563	-132.537	-9.91451	-0.766363	-130.297	-16.1123	-24.6578	-159.843	2.55884	22.7521	-162.112	-2.67758	-7.19848	-172.393	-10.0802	-36.0018	-186.128	2.31697	36.2579	-193.444	-2.30705	6.71005	-200.088	-9.91126	-17.2611	-202.229	-0.860842	58.8363	-210.256	-3.00952	36.3667	-223.082	-1.76681	12.6928	-170.853	16.652	89.124	-165.989	27.415	116.755	-133.185	16.2943	94.5219	
6	0.05	-106.611	-7.96519	106.008	-90.1645	-21.4647	86.6498	-76.3276	-36.4822	64.4838	-62.729	-48.2348	46.7683	-132.648	-5.08854	25.8918	-129.042	-10.2953	3.24174	-132.881	-16.1278	-24.8123	-160.896	2.70284	22.5516	-161.839	-2.57483	-4.68827	-170.612	-9.9618	-37.9351	-181.096	1.64403	37.893	-191.593	-2.36892	9.71382	-197.064	-10.3766	-21.4488	-204.529	-0.991236	59.6388	-214.312	-2.26335	32.3074	-223.057	-0.818109	11.6725	-170.037	14.524	90.0628	-166.961	28.1479	118.88	-135.848	18.9549	96.0007	
7	0.0583333	-106.367	-7.34204	110.818	-91.0048	-21.9931	89.9235	-72.9126	-35.9148	60.639	-59.4035	-48.4246	47.8908	-131.621	-5.20414	27.3015	-129.013	-11.7787	-1.27044	-133.935	-16.418	-24.7721	-159.32	1.74092	23.0146	-163.327	-3.43083	-5.12839	-168.031	-12.7615	-40.2668	-181.338	1.32699	36.9019	-194.242	-2.86793	10.0877	-199.122	-10.721	-16.9147	-204.616	-0.337722	57.761	-212.318	-3.06075	35.9573	-223.391	-1.58912	9.1763	-175.472	15.3649	91.1114	-167.365	27.1556	117.313	-133.242	18.6145	94.6292	
8	0.0666667	-107.207	-9.04622	108.161	-92.1982	-23.0529	87.2437	-76.9598	-36.769	62.6687	-61.2934	-49.3842	43.7955	-131.39	-5.64099	29.6401	-130.323	-11.5056	-1.96241	-129.293	-19.0812	-29.3662	-158.148	1.97553	26.3622	-166.123	-3.6241	-8.47084	-170.166	-12.4481	-37.4751	-183.519	1.63432	35.7183	-193.399	-2.59067	10.3843	-196.51	-11.9739	-20.0254	-203.789	-1.83437	62.2766	-211.889	-3.50983	37.0361	-223.385	-1.63751	11.6587	-173.18	13.6576	89.0667	-167.473	26.7951	120.349	-135.187	16.4185	96.3687	
9	0.075	-108.978	-8.48609	110.037	-88.0492	-23.082	88.4013	-71.3782	-36.307	65.5278	-63.3944	-50.6391	47.9371	-130.193	-6.44708	28.4888	-132.238	-10.4938	2.83208	-132.6	-17.3779	-26.5178	-156.592	1.53736	23.8126	-161.183	-3.77271	-6.80491	-168.734	-12.7817	-36.1162	-180.133	1.32947	33.9779	-193.314	-1.74706	11.8742	-197.304	-12.0419	-18.0426	-199.083	-3.41393	61.6314	-213.534	-3.52685	34.5708	-221.196	-3.45881	11.6622	-175.521	14.7304	89.7597	-167.716	26.828	115.877	-133.922	16.908	96.6495	
10	0.0833333	-107.222	-9.05686	107.991	-90.5241	-23.5468	89.3484	-73.5513	-38.3261	63.9221	-60.3464	-51.4135	46.379	-132.951	-7.68104	27.9309	-129.798	-12.5589	2.13374	-133.497	-19.2045	-28.1985	-158.234	0.753776	22.7702	-162.175	-4.91949	-5.21743	-172.498	-12.9441	-35.2823	-186.166	0.328323	37.5429	-192.646	-3.08042	11.705	-196.514	-12.2307	-19.5152	-199.575	-4.45206	61.648	-212.704	-3.76332	35.2484	-221.205	-4.58026	12.4448	-175.535	13.7202	90.3553	-167.646	24.4548	115.409	-136.34	16.865	95.8289	
11	0.0916667	-110.247	-10.2737	110.993	-87.6281	-23.9202	90.7897	-71.6613	-38.2145	64.9844	-63.9085	-51.8965	47.4991	-131.226	-8.38519	27.3687	-129.733	-13.4422	-0.395565	-132.943	-18.973	-24.6105	-157.968	-0.160606	25.6469	-164.519	-4.87564	-7.19095	-171.112	-13.9114	-39.2141	-184.244	-0.783946	39.0532	-189.206	-4.7729	11.6273	-197.599	-11.6646	-15.886	-199.531	-3.81436	56.5748	-210.523	-5.51025	36.7897	-224.035	-4.06145	11.5945	-175.36	14.0153	87.867	-169.309	25.7406	117.156	-133.94	13.3626	94.0702	
12	0.1	-110.253	-10.3021	106.209	-92.9214	-25.7215	89.0329	-71.1522	-40.1467	64.5849	-59.6478	-52.3973	47.8545	-129.762	-9.29832	26.024	-126.917	-14.2629	0.30814	-130.44	-19.7619	-23.8806	-155.796	-1.65805	23.1914	-163.542	-6.71284	-8.84092	-170.815	-13.3939	-35.7601	-185.323	-0.902895	37.3357	-188.128	-6.08334	7.90958	-196.368	-13.4681	-18.0154	-201.892	-5.38944	61.4921	-211.911	-6.27451	37.7335	-222.121	-4.33043	10.1752	-171.191	10.0819	85.9539	-165.789	24.3053	118.596	-135.151	13.2801	96.2737	
13	0.108333	-107.728	-11.6187	110.083	-88.0179	-25.7618	87.9166	-71.1792	-39.9258	62.1755	-59.6989	-53.8641	46.2167	-133.248	-9.03961	29.3931	-129.152	-13.3848	2.92868	-130.47	-20.8403	-27.9514	-157.288	-1.22226	21.5323	-161.437	-7.59943	-8.64682	-168.022	-14.8685	-35.6064	-182.754	-2.15019	34.5048	-189.373	-6.64217	11.6722	-194.956	-14.4557	-16.7024	-199.443	-4.92755	56.2247	-213.944	-6.6913	32.4178	-220.422	-5.72049	10.0674	-171.884	9.64663	86.1853	-165.604	24.858	115.62	-134.062	15.6504	97.3334	
14	0.116667	-106.372	-10.9652	108.91	-89.2874	-25.1615	90.9485	-71.3967	-40.0184	64.4457	-62.1249	-53.022	47.0211	-133.483	-9.02023	26.2233	-131.136	-13.9823	1.05081	-131.169	-21.9725	-27.3747	-156.273	-2.09128	24.6505	-160.865	-8.08638	-7.25242	-170.882	-17.0765	-40.5204	-182.583	-2.51643	35.1419	-190.427	-7.11107	9.14206	-194.5	-15.6907	-16.4227	-204.258	-4.67793	57.1358	-213.589	-6.67824	36.8954	-224.015	-4.88935	9.00766	-175.343	12.2577	89.4094	-165.562	21.7442	115.989	-136.195	14.2175	95.2521	
15	0.125	-107.367	-12.1343	108.495	-91.013	-25.7479	87.3478	-71.9967	-38.9254	59.1253	-60.9458	-52.5777	47.7871	-131.332	-8.19676	27.4992	-127.749	-13.9558	-0.183362	-133.898	-22.5273	-30.9254	-159.5	-0.242866	25.3161	-161.049	-8.41247	-10.7968	-169.667	-18.144	-37.7698	-183.798	-1.25966	36.4525	-189.067	-7.52338	9.77022	-196.822	-17.6574	-17.8194	-204.87	-4.35636	57.8564	-212.437	-7.37492	33.8195	-221.044	-7.74956	7.95037	-173.72	10.539	86.565	-166.074	22.3319	117.024	-134.55	14.8604	92.4469	
16	0.133333	-107.296	-9.86276	110.124	-90.0147	-23.1455	84.5164	-74.406	-35.31	61.0555	-61.177	-46.8602	41.4964	-133.148	-3.97066	29.6747	-133.894	-11.9039	-2.89743	-136.82	-23.9609	-27.911	-161.729	2.59302	27.099	-166.923	-5.8865	-8.58638	-174.091	-22.7939	-35.5009	-181.37	0.200771	34.5271	-192.207	-6.20312	6.98535	-197.748	-23.3336	-20.8508	-203.959	-2.61456	56.2586	-213.269	-5.8754	33.3032	-220.993	-12.2886	8.50408	-174.072	14.2701	91.7328	-165.987	24.6219	116.34	-137.121	16.9437	93.6747	
17	0.141667	-107.125	-7.23002	108.555	-93.4183	-19.8736	89.0411	-75.7614	-30.5865	61.8527	-61.5859	-40.9312	42.4727	-132.667	0.536184	30.6977	-138.816	-9.2958	-2.4432	-143.906	-29.0695	-23.2114	-162.909	6.24483	23.4331	-167.874	-6.81502	-6.76014	-179.493	-37.2194	-29.6811	-185.944	4.30399	35.5505	-193.564	-5.59138	9.67972	-192.769	-33.5991	-12.5461	-202.194	-0.360453	59.3864	-215.429	-7.08902	30.1275	-218.85	-21.2143	10.7594	-173.938	16.801	90.3117	-169.732	25.7856	118.888	-139.602	19.7528	97.7155	
18	0.15	-107.644	-2.61095	106.1	-96.1282	-14.1366	87.3204	-75.2029	-23.1314	55.8598	-67.1158	-32.6395	38.2471	-138.638	4.18745	30.7212	-143.939	-7.8802	-1.40646	-154.405	-37.7912	-13.4589	-165.37	7.95514	26.2842	-176.664	-15.4166	-5.80921	-181.409	-47.9294	-10.8807	-187.717	4.39008	37.6523	-197.326	-14.2403	9.96889	-192.98	-50.3485	2.05373	-204.71	-0.933987	59.4769	-212.266	-14.7826	29.1909	-210.534	-37.6513	16.6375	-174.585	18.4999	92.9152	-170.654	29.1152	122.75	-141.857	21.2298	99.5956	
19	0.158333	-111.722	1.64863	104.516	-94.1245	-7.19209	82.4204	-78.5778	-14.6684	54.2138	-65.7651	-23.1647	34.2869	-149.16	5.80372	24.442	-153.674	-11.4726	0.746266	-157.342	-48.1496	3.33202	-173.248	3.71311	22.0924	-176.121	-25.2207	0.108398	-175.922	-60.732	13.4093	-195.382	-2.831	33.7995	-197.292	-25.474	15.7739	-185.292	-61.377	25.5278	-208.94	-6.01679	60.1835	-214.341	-27.5981	33.8924	-202.665	-57.4302	35.1171	-179.995	20.5951	89.6844	-171.734	26.677	123.95	-139.9	25.3511	97.5029	
20	0.166667	-115.392	5.57418	103.019	-97.8362	-2.20225	74.9771	-80.9905	-7.94066	46.3838	-68.5536	-16.51	26.2517	-154.736	2.54325	25.8562	-161.526	-25.6982	4.0646	-153.068	-55.266	23.8696	-180.375	-5.05093	25.0107	-177.173	-38.4264	8.46655	-165.077	-63.4053	38.904	-198.239	-13.6059	36.5284	-195.914	-46.9123	24.6462	-175.241	-62.7854	47.3363	-211.021	-17.1905	57.9025	-208.803	-46.132	41.0889	-186.76	-64.3484	55.3022	-184.802	15.8619	89.6253	-176.788	24.9088	118.472	-150.2	26.2118	92.1018	
21	0.175	-118.26	9.0055	94.7714	-102.913	-0.128495	75.3624	-85.1168	-4.90438	43.5429	-75.3111	-14.2925	26.1304	-160.474	-6.29186	21.088	-159.345	-35.8992	8.14221	-146.49	-53.4997	36.6047	-180.563	-17.1796	21.135	-175.628	-53.3803	22.5313	-158.24	-57.9792	55.8521	-199.144	-26.1374	38.6194	-188.379	-58.8019	36.6822	-168.976	-59.0242	66.1046	-210.364	-31.4619	55.3776	-196.291	-60.942	52.2747	-177.794	-61.733	75.0972	-190.087	12.7104	86.5647	-181.559	22.6658	120.222	-154.425	25.2106	90.9919	
